<svg xmlns="http://www.w3.org/2000/svg" viewBox="0 0 1486.6 1024.12"><defs><style>.cls-1{fill:#c4cfd8;}.cls-2{fill:#d9e1eb;}.cls-3{fill:#8d98a2;}.cls-4{fill:#9fa9b4;}</style></defs><g id="Layer_2" data-name="Layer 2"><g id="Layer_1-2" data-name="Layer 1"><path class="cls-1" d="M3.58,410.63c-4.5-1.71-4.26-3.11-2-6.58C27.76,363.47,138.27,191,167.45,145.4c1.67-2.62,3.11-5.65,7-5.66,6.19,2.87,567,181.08,600.62,192.13,2.34.78,4.85,1.26,6.76,3,.91,3.94,3,7.33,5,10.76C820.7,402.35,935.2,594.52,958.58,633.87c3.38,5.69,3.39,5.67,9.34,3.33,63.05-24.83,273.32-107.88,315.52-124.3,2.54-1,5.46-3.39,8,.32q0,122.1.09,244.19c0,2.84-.78,4.46-3.42,5.81-30.19,15.47-500.35,259-502.67,260.32s-7.38.25-7.61-.85a7.24,7.24,0,0,1-1.31-4.71c0-1.66,0-3.33,0-5q0-330.84,0-661.68a8.89,8.89,0,0,0-.29-3.41c-5.84,10-145.77,251.83-166.84,287.91-4,6.79-4.56,7-11.86,4.15C512.59,607.37,42.39,425.33,3.58,410.63Z"/><path class="cls-2" d="M171.34,475.25c16.59,6.29,420.41,161,429.82,164.73,2.58,1,4,.62,5.5-2,16.54-28.77,158.4-273.68,168.77-291.64.46-.79.51-2,2-2,1,1.3.45,2.82.45,4.21,0,223.58,0,673.05-.06,674.21-15-5.47-598.74-257.92-604-259.92-1.88-.7-2.74-1.4-2.44-3.4a21.3,21.3,0,0,0,0-3Q171.35,615.81,171.34,475.25Z"/><path class="cls-2" d="M983.66,632.55c-6.17,2.44-12.38,4.77-18.52,7.28-2.75,1.12-4.12.59-5.76-2.17-18.21-30.83-167.21-280.73-177-296.91-1.16-1.92-1.8-3.45-.57-5.42.17-2.29,2.2-2.23,3.65-2.72,61.69-20.75,452.55-149.84,493.17-162.72,2.2-.7,4.59-.82,6.6-2.13,4.65-.89,6.34,2.25,8.74,5.49,25,33.65,182.41,244.58,191.74,256.84,2.1,2.76.1,7.29-2.79,8.43C1440.47,455.19,1029.13,614.52,983.66,632.55Z"/><path class="cls-3" d="M1285.25,167.76c-.06,2.49-2.36,2.14-3.68,2.58C1211.43,193.52,817,323.44,782.63,334.75a2.91,2.91,0,0,0-.8.58c-21.25-6.77-90.22-28.69-103.43-32.93-1.55-.49-3-1.25-4.5-1.89-2.17-2.77-1.81-294.68-1.27-296.78.42-1.62.51-4,3.38-3,20.48,5.57,552.54,151.68,605.82,166.35C1282.94,167.41,1284.11,167.54,1285.25,167.76Z"/><path class="cls-4" d="M676,.75a2.12,2.12,0,0,0-2,2.34c0,1.5,0,3,0,4.49q0,146.46-.05,292.93c-15.76-4-473.66-150.68-496.21-158a5.53,5.53,0,0,1-3.29-2.75c26.2-7.3,468.45-131,498.45-139.49C674.12-.11,675.07-.18,676,.75Z"/></g></g></svg>