<svg width="102" height="102" viewBox="0 0 102 102" fill="none" xmlns="http://www.w3.org/2000/svg">
<path d="M51 0C79.1695 0 102 22.8305 102 51C102 79.1695 79.1695 102 51 102C22.8305 102 0 79.1695 0 51C0 22.8305 22.8305 0 51 0ZM51 25.5C43.0771 25.5 36.6562 31.9228 36.6562 39.8438C36.6562 47.7647 43.0711 54.1875 51 54.1875C58.9209 54.1875 65.3438 47.7647 65.3438 39.8438C65.3438 31.9228 58.9289 25.5 51 25.5ZM51 89.25C61.5446 89.25 71.1012 84.9608 78.034 78.036C74.8066 69.7066 66.8379 63.75 57.375 63.75H44.625C35.1541 63.75 27.1854 69.7027 23.966 78.036C30.8988 84.9668 40.4613 89.25 51 89.25Z" fill="#A4A9C5"/>
</svg>
